<svg xmlns="http://www.w3.org/2000/svg" width="250" height="250" preserveAspectRatio="xMidYMid meet" viewBox="0 0 250 250"><path fill="#00A8E5" d="M125 246.9C57.8 246.9 3.1 192.2 3.1 125S57.8 3.1 125 3.1 246.9 57.8 246.9 125 192.2 246.9 125 246.9zm0-233.8C63.3 13.1 13.1 63.3 13.1 125S63.3 236.9 125 236.9 236.9 186.7 236.9 125 186.7 13.1 125 13.1z"/><g fill="#00A8E5"><path d="M90.5 58.3c0-.9 1.4-2 3.2-2H99l4.6 14h7.5l-4.6-14H142l-4.6 14h7.5l4.6-14h6.9c1.8 0 3.2 1 3.2 2v5.5h7.2v-5.5c0-5-4.6-9.1-10.4-9.1H93.7c-5.7 0-10.4 4.1-10.4 9.1v5.5h7.2v-5.5zM87.9 198h74.3c11.3 0 20.5-9.1 20.5-20.3V93c0-11.1-9.2-20.3-20.5-20.3H87.9c-11.3 0-20.5 9.1-20.5 20.3v84.7c0 11.1 9.2 20.3 20.5 20.3zm9.1-10.5c-3 0-5.4-2.4-5.4-5.4 0-3 2.4-5.4 5.4-5.4 3 0 5.5 2.4 5.5 5.4-.1 3-2.5 5.4-5.5 5.4zm56.1 0c-3 0-5.4-2.4-5.4-5.4 0-3 2.4-5.4 5.4-5.4 3 0 5.5 2.4 5.5 5.4 0 3-2.5 5.4-5.5 5.4zm24-7.4c0 4.1-3.4 7.5-7.6 7.5-4.2 0-7.6-3.4-7.6-7.5s3.4-7.5 7.6-7.5c4.2 0 7.6 3.3 7.6 7.5zM74.2 95.2c0-6.8 5.7-12.5 12.6-12.5h76.5c6.9 0 12.6 5.6 12.6 12.5v57.2c0 6.9-5.7 12.5-12.6 12.5H86.8c-6.9 0-12.6-5.6-12.6-12.5V95.2zm6.4 77.4c4.2 0 7.6 3.3 7.6 7.5 0 4.1-3.4 7.5-7.6 7.5-4.2 0-7.6-3.4-7.6-7.5 0-4.2 3.4-7.5 7.6-7.5zM188.1 218h11l-15.2-10.1h-7.1M73.2 207.9h-7.1L50.9 218h11M89.6 207.9L78.3 218h93.5l-11.3-10.1M84.5 200.7l-25.7 23h10l25.6-23M155.6 200.7l25.7 23h9.9l-25.6-23"/></g></svg>
